HIERARCHY
ROOT Hips
{
	OFFSET	0.00	0.00	0.00
	CHANNELS 6 Xposition Yposition Zposition Zrotation Xrotation Yrotation
	JOINT LeftUpLeg
	{
		OFFSET	 0.126116	-0.014019	-0.065224
		CHANNELS 3 Zrotation Xrotation Yrotation
		JOINT LeftLeg
		{
			OFFSET	 0.000000	 0.000000	 0.569914
			CHANNELS 3 Zrotation Xrotation Yrotation
			JOINT LeftFoot
			{
				OFFSET	 0.000000	 0.000000	 0.544423
				CHANNELS 3 Zrotation Xrotation Yrotation
				JOINT LeftToeBase
				{
					OFFSET	 0.000000	 0.000000	 0.207117
					CHANNELS 3 Zrotation Xrotation Yrotation
					End Site
					{
						OFFSET	 0.000000	 0.000000	 0.207117
					}
				}
			}
		}
	}
	JOINT RightUpLeg
	{
		OFFSET	-0.124023	-0.008373	-0.065224
		CHANNELS 3 Zrotation Xrotation Yrotation
		JOINT RightLeg
		{
			OFFSET	 0.000000	 0.000000	 0.570047
			CHANNELS 3 Zrotation Xrotation Yrotation
			JOINT RightFoot
			{
				OFFSET	 0.000000	 0.000000	 0.544354
				CHANNELS 3 Zrotation Xrotation Yrotation
				JOINT RightToeBase
				{
					OFFSET	 0.000000	 0.000000	 0.207540
					CHANNELS 3 Zrotation Xrotation Yrotation
					End Site
					{
						OFFSET	 0.000000	 0.000000	 0.207540
					}
				}
			}
		}
	}
	JOINT Spine
	{
		OFFSET	 0.000184	-0.007763	 0.117403
		CHANNELS 3 Zrotation Xrotation Yrotation
		JOINT Spine1
		{
			OFFSET	 0.000000	 0.000000	 0.137269
			CHANNELS 3 Zrotation Xrotation Yrotation
			JOINT Spine2
			{
				OFFSET	 0.000000	 0.000000	 0.156879
				CHANNELS 3 Zrotation Xrotation Yrotation
				JOINT LeftShoulder
				{
					OFFSET	 0.080501	-0.002496	 0.160144
					CHANNELS 3 Zrotation Xrotation Yrotation
					JOINT LeftArm
					{
						OFFSET	 0.000000	 0.000000	 0.164363
						CHANNELS 3 Zrotation Xrotation Yrotation
						JOINT LeftForeArm
						{
							OFFSET	 0.000000	 0.000000	 0.364576
							CHANNELS 3 Zrotation Xrotation Yrotation
							JOINT LeftHand
							{
								OFFSET	 0.000000	 0.000000	 0.360812
								CHANNELS 3 Zrotation Xrotation Yrotation
								JOINT LeftHandIndex1
								{
									OFFSET	 0.000000	 0.000000	 0.086006
									CHANNELS 3 Zrotation Xrotation Yrotation
									JOINT LeftHandIndex2
									{
										OFFSET	 0.000000	 0.000000	 0.047237
										CHANNELS 3 Zrotation Xrotation Yrotation
										JOINT LeftHandIndex3
										{
											OFFSET	-0.004284	-0.000551	 0.038165
											CHANNELS 3 Zrotation Xrotation Yrotation
											End Site
											{
												OFFSET	-0.004284	-0.000551	 0.038165
											}
										}
									}
								}
							}
						}
					}
				}
				JOINT Neck
				{
					OFFSET	 0.000000	 0.000000	 0.176489
					CHANNELS 3 Zrotation Xrotation Yrotation
					JOINT Head
					{
						OFFSET	 0.000000	-0.001747	 0.077940
						CHANNELS 3 Zrotation Xrotation Yrotation
						End Site
						{
							OFFSET	 0.000000	-0.001747	 0.077940
						}
					}
				}
				JOINT RightShoulder
				{
					OFFSET	-0.080363	 0.000306	 0.159706
					CHANNELS 3 Zrotation Xrotation Yrotation
					JOINT RightArm
					{
						OFFSET	 0.000000	 0.000000	 0.164196
						CHANNELS 3 Zrotation Xrotation Yrotation
						JOINT RightForeArm
						{
							OFFSET	 0.000000	 0.000000	 0.365611
							CHANNELS 3 Zrotation Xrotation Yrotation
							JOINT RightHand
							{
								OFFSET	 0.000000	 0.000000	 0.360648
								CHANNELS 3 Zrotation Xrotation Yrotation
								JOINT RightHandIndex1
								{
									OFFSET	 0.000000	 0.000000	 0.069977
									CHANNELS 3 Zrotation Xrotation Yrotation
									JOINT RightHandIndex2
									{
										OFFSET	 0.000000	 0.000000	 0.052305
										CHANNELS 3 Zrotation Xrotation Yrotation
										JOINT RightHandIndex3
										{
											OFFSET	 0.009002	-0.000782	 0.042196
											CHANNELS 3 Zrotation Xrotation Yrotation
											End Site
											{
												OFFSET	 0.009002	-0.000782	 0.042196
											}
										}
									}
								}
							}
						}
					}
				}
			}
		}
	}
}
MOTION
Frames:    13
Frame Time: 0.03333334
-0.727371	-0.006065	 1.270910	-176.552400	-6.276150	 1.000908	 13.032920	 2.076865	 174.862100	-6.453555	-16.559150	-2.269725	-9.358065	 73.104040	 2.088448	-2.385833	 28.452760	 0.000004	-11.032110	 5.412232	-177.659800	 3.550828	-13.107530	 0.856418	 7.441893	 71.231510	-3.812213	 2.384659	 28.388700	-0.000001	-10.564430	 6.858842	-1.935685	-4.693949	 9.575986	 0.269686	 8.835801	-7.095859	 4.791320	-91.776110	 78.527420	 180.000000	-32.693470	 11.862110	 15.543590	-15.680220	-4.125618	-56.762000	-2.273612	-11.070400	-2.464113	-4.130354	 21.526190	 0.991307	-5.167926	 0.731697	 3.519349	-1.378229	 35.397820	-2.634230	-9.253040	 1.364482	 4.866983	-2.744549	-18.159410	-5.670477	 89.782230	 78.203890	 179.999900	 2.649615	 5.144936	-11.128180	 10.434570	-2.897418	 63.317770	 28.651270	 59.811540	 38.564810	 5.716295	 19.173350	-3.684826	 5.027458	 0.246833	-9.377971	-2.350882	 35.473990	 5.254307
-0.727464	-0.006080	 1.270327	-176.493300	-6.160986	 0.926991	 13.094270	 1.432517	 174.689700	-6.566509	-18.169110	-2.518876	-11.782340	 74.138570	 4.660837	-2.385833	 28.452760	 0.000004	-10.955030	 5.114624	-177.494300	 3.577799	-14.413200	 0.946731	 8.104063	 72.301050	-4.525889	 2.384659	 28.388700	-0.000001	-11.266620	 6.660566	-1.821449	-5.115214	 8.942806	-0.184529	 8.858747	-6.512724	 5.031552	-91.776180	 78.527380	-180.000000	-31.312070	 17.875570	 22.082880	-16.403600	-4.768365	-67.485210	-2.435349	-11.051970	-2.499067	-4.130354	 21.526190	 0.991307	-5.167926	 0.731697	 3.519349	-1.378229	 35.397820	-2.634230	-9.179982	 1.256619	 4.828950	-2.688706	-17.935900	-5.626491	 89.782100	 78.203830	 180.000000	 2.126028	 9.752269	-12.657850	 10.901610	-3.085621	 72.258260	 30.256070	 56.090580	 34.934890	 5.716295	 19.173350	-3.684826	 5.027458	 0.246833	-9.377971	-2.350882	 35.473990	 5.254307
-0.727563	-0.006088	 1.269703	-176.503700	-5.990197	 0.806854	 13.277050	 0.803900	 174.533300	-6.709942	-19.689360	-2.770512	-14.664730	 74.955200	 7.750397	-2.385833	 28.452760	 0.000004	-10.716470	 4.797474	-177.312700	 3.535993	-15.702400	 1.017992	 8.697166	 73.450160	-5.077433	 2.384659	 28.388700	-0.000001	-11.982190	 6.386110	-1.576753	-5.570634	 8.213660	-0.863820	 8.922761	-5.741296	 5.371937	-91.776180	 78.527400	-180.000000	-29.691450	 24.551890	 27.507280	-17.111100	-5.069860	-75.986800	-2.676094	-11.074070	-2.527609	-4.130354	 21.526190	 0.991307	-5.167926	 0.731697	 3.519349	-1.378229	 35.397820	-2.634230	-9.009567	 1.007057	 4.675150	-2.566293	-17.554580	-5.254762	 89.782050	 78.203870	-180.000000	 1.011169	 14.921160	-13.195180	 11.303670	-3.320214	 80.043370	 28.877220	 52.403940	 33.172420	 5.716295	 19.173350	-3.684826	 5.027458	 0.246833	-9.377971	-2.350882	 35.473990	 5.254307
-0.727676	-0.006094	 1.268793	-176.522500	-5.741841	 0.664429	 13.477350	-0.012678	 174.266000	-6.907720	-21.721810	-3.117395	-19.255450	 76.004830	 12.622320	-2.385833	 28.452760	 0.000004	-10.414300	 4.504387	-177.071600	 3.481694	-17.285530	 1.101426	 9.742094	 74.973670	-6.076020	 2.384659	 28.388700	-0.000001	-13.019710	 5.999515	-1.280419	-6.263611	 7.169174	-1.871675	 8.988543	-4.663996	 5.883532	-91.776230	 78.527430	-180.000000	-26.542220	 35.009080	 32.626800	-17.813700	-5.272333	-83.963840	-2.993295	-11.089250	-2.566888	-4.130354	 21.526190	 0.991307	-5.167926	 0.731697	 3.519349	-1.378229	 35.397820	-2.634230	-8.795299	 0.695641	 4.490102	-2.414128	-17.065760	-4.810391	 89.782020	 78.203870	-180.000000	-1.622924	 23.192910	-12.079150	 11.804100	-3.548259	 88.729720	 24.243520	 47.732530	 31.572540	 5.716295	 19.173350	-3.684826	 5.027458	 0.246833	-9.377971	-2.350882	 35.473990	 5.254307
-0.727715	-0.006163	 1.266161	-176.664700	-4.874122	 1.320472	 13.474380	-2.538264	 172.392400	-7.232043	-27.445190	-4.032224	-36.818200	 79.183620	 30.483610	-2.385833	 28.452760	 0.000004	-9.827920	 4.829751	-177.419700	 3.273886	-19.770880	 1.183285	 16.418330	 78.034030	-12.795450	 2.384659	 28.388700	-0.000001	-16.108100	 5.660139	-2.037941	-8.485291	 3.209322	-4.878926	 9.103004	-1.380723	 7.562335	-91.776220	 78.527380	-180.000000	-5.860116	 65.113100	 17.514390	-17.053650	-5.415842	-76.484120	-3.213277	-10.767650	-2.697606	-4.130354	 21.526190	 0.991307	-5.167926	 0.731697	 3.519349	-1.378229	 35.397820	-2.634230	-8.235029	 0.377983	 4.448390	-1.981013	-15.596150	-5.333010	 89.782100	 78.203870	 180.000000	-23.171830	 48.408480	 8.571645	 12.455970	-5.213993	 96.508770	-4.267847	 37.271490	 34.837490	 5.716295	 19.173350	-3.684826	 5.027458	 0.246833	-9.377971	-2.350882	 35.473990	 5.254307
-0.728403	-0.006447	 1.265241	-176.982000	-3.553400	 1.193996	 14.599520	-4.484737	 171.646600	-7.494411	-30.550900	-4.581086	-48.423260	 79.867520	 42.407820	-2.385833	 28.452760	 0.000004	-8.803229	 4.356701	-177.180100	 3.198513	-21.480080	 1.253232	 24.699120	 80.513900	-21.072250	 2.384659	 28.388700	-0.000001	-18.919520	 5.548305	-1.787903	-10.536000	-1.630507	-8.376327	 9.110591	 2.716137	 9.173854	-91.776180	 78.527400	-180.000000	 19.705300	 72.070940	-31.993030	-13.683290	-2.159466	-25.234640	-3.853010	-10.904490	-2.781259	-4.130354	 21.526190	 0.991307	-5.167926	 0.731697	 3.519349	-1.378229	 35.397820	-2.634230	-7.211606	-0.334587	 3.676107	-1.316567	-13.503750	-4.748204	 89.782080	 78.203870	 180.000000	-56.071250	 53.841510	 44.177740	 11.455140	-6.377182	 86.654450	-26.442850	 28.513890	 41.921220	 5.716295	 19.173350	-3.684826	 5.027458	 0.246833	-9.377971	-2.350882	 35.473990	 5.254307
-0.730306	-0.006805	 1.268033	-177.845200	-3.142993	 0.949847	 16.224120	-4.818184	 172.197300	-7.981285	-30.165260	-4.778386	-48.463470	 80.638660	 42.745660	-2.385833	 28.452760	 0.000004	-7.764954	 3.399980	-176.893300	 2.991477	-21.755790	 1.191573	 24.750560	 80.339100	-20.879400	 2.384659	 28.388700	-0.000001	-19.149320	 6.972565	-1.114852	-10.875660	-5.521556	-9.563725	 8.896935	 6.124664	 9.131270	-91.776220	 78.527380	-180.000000	 19.345840	 70.654530	-27.967120	-14.964750	-2.012703	-31.430610	-4.297853	-10.955600	-2.861864	-4.130354	 21.526190	 0.991307	-5.167926	 0.731697	 3.519349	-1.378229	 35.397820	-2.634230	-6.666489	-0.646648	 3.168576	-0.965899	-11.456130	-4.344625	 89.782130	 78.203900	 180.000000	-52.356130	 52.242230	 39.019780	 12.639570	-7.053411	 96.933820	-22.654090	 35.924650	 37.834110	 5.716295	 19.173350	-3.684826	 5.027458	 0.246833	-9.377971	-2.350882	 35.473990	 5.254307
-0.731821	-0.009193	 1.270901	-178.176900	-2.663841	 1.548727	 17.046770	-5.766256	 171.964200	-8.303189	-30.098150	-4.933650	-48.194270	 81.256520	 42.607770	-2.385833	 28.452760	 0.000004	-7.305746	 2.629961	-177.556100	 2.702245	-21.463090	 1.070216	 23.710360	 79.924090	-19.548030	 2.384659	 28.388700	-0.000001	-19.806570	 8.864624	-1.594508	-11.142650	-9.179639	-10.430060	 8.807781	 9.344057	 9.068525	-91.776060	 78.527380	 179.999900	 17.843350	 69.464890	-21.540750	-16.134950	-1.841011	-40.808360	-4.771280	-11.010440	-2.940575	-4.130354	 21.526190	 0.991307	-5.167926	 0.731697	 3.519349	-1.378229	 35.397820	-2.634230	-6.026804	-0.551646	 2.367312	-0.566013	-9.858716	-3.378584	 89.782030	 78.203850	-179.999900	-45.621090	 50.150840	 32.164840	 13.739810	-7.266771	 105.486500	-16.771830	 43.023130	 33.919650	 5.716295	 19.173350	-3.684826	 5.027458	 0.246833	-9.377971	-2.350882	 35.473990	 5.254307
-0.732980	-0.015622	 1.273239	-178.531700	-1.659080	 0.990930	 18.566140	-6.819942	 172.684300	-8.513639	-29.656940	-4.974784	-45.804310	 81.124310	 40.462300	-2.385833	 28.452760	 0.000004	-6.654059	 0.529221	-177.250000	 2.675413	-22.754390	 1.120867	 23.318970	 80.604190	-18.970430	 2.384659	 28.388700	-0.000001	-21.029860	 10.632140	-0.962724	-11.990620	-13.799450	-11.607090	 8.716516	 13.359320	 8.783317	-91.776190	 78.527360	-180.000000	 20.699170	 68.260830	-24.820930	-17.459040	-0.703477	-40.926780	-5.647553	-11.094420	-3.032169	-4.130354	 21.526190	 0.991307	-5.167926	 0.731697	 3.519349	-1.378229	 35.397820	-2.634230	-5.411590	 0.315486	 1.932466	-0.152457	-8.993316	-2.789054	 89.782100	 78.203870	 180.000000	-44.247730	 48.402280	 31.905210	 14.084140	-7.065742	 108.899800	-14.457540	 47.066830	 31.514020	 5.716295	 19.173350	-3.684826	 5.027458	 0.246833	-9.377971	-2.350882	 35.473990	 5.254307
-0.734404	-0.023950	 1.275729	-179.170200	-0.429817	 0.446170	 20.057010	-8.360258	 173.796700	-8.617048	-29.404830	-4.988454	-42.179110	 81.039390	 36.956200	-2.385833	 28.452760	 0.000004	-5.867749	-1.995685	-176.819500	 2.645323	-23.842030	 1.159197	 20.342500	 80.672560	-15.745460	 2.384659	 28.388700	-0.000001	-21.646730	 12.440200	-0.443004	-12.756500	-17.934090	-12.709730	 8.569599	 16.884730	 8.378325	-91.776160	 78.527380	 180.000000	 23.783550	 67.267720	-28.773140	-18.536420	 0.231929	-42.329890	-6.375879	-11.008720	-3.117065	-4.130354	 21.526190	 0.991307	-5.167926	 0.731697	 3.519349	-1.378229	 35.397820	-2.634230	-5.094863	 0.557268	 1.704246	 0.070910	-8.127309	-2.225649	 89.782080	 78.203870	 180.000000	-42.079620	 47.425160	 31.450600	 13.933720	-6.511864	 109.591300	-12.072700	 49.566670	 29.434340	 5.716295	 19.173350	-3.684826	 5.027458	 0.246833	-9.377971	-2.350882	 35.473990	 5.254307
-0.737780	-0.039118	 1.278810	-179.516600	 1.401208	 0.071178	 22.055790	-11.346870	 175.416800	-8.647879	-29.547440	-5.025912	-37.078480	 80.976940	 31.820250	-2.385833	 28.452760	 0.000004	-4.935980	-5.561811	-176.470400	 2.684015	-24.725190	 1.215688	 14.389880	 80.417450	-9.473083	 2.384659	 28.388700	-0.000001	-22.871110	 15.193120	 0.020119	-13.869050	-21.383640	-14.948740	 8.672489	 19.880110	 8.351351	-91.776180	 78.527400	-180.000000	 27.397400	 66.518990	-34.221600	-19.708270	 1.443416	-45.819230	-7.719119	-11.028530	-3.265152	-4.130354	 21.526190	 0.991307	-5.167926	 0.731697	 3.519349	-1.378229	 35.397820	-2.634230	-4.426855	-0.084668	 1.344787	 0.469023	-7.071182	-0.571332	 89.782040	 78.203850	-180.000000	-38.112590	 45.958210	 31.002390	 13.299890	-5.747408	 106.827800	-12.332710	 51.821060	 31.495440	 5.716295	 19.173350	-3.684826	 5.027458	 0.246833	-9.377971	-2.350882	 35.473990	 5.254307
-0.743473	-0.056545	 1.280130	 179.889000	 3.386382	-0.641420	 23.474510	-14.027440	 177.594800	-8.434537	-29.500370	-4.911159	-31.840490	 80.829050	 26.264100	-2.385833	 28.452760	 0.000004	-4.209809	-9.452468	-175.661100	 2.837486	-25.748990	 1.329478	 9.336113	 80.026240	-4.237055	 2.384659	 28.388700	-0.000001	-23.519260	 18.045120	 0.133415	-14.606260	-23.222680	-17.062600	 8.375605	 20.658130	 9.038432	-91.776150	 78.527400	 180.000000	 31.016210	 65.391690	-39.090000	-20.462000	 2.530820	-49.903530	-8.614754	-10.465100	-3.313558	-4.130354	 21.526190	 0.991307	-5.167926	 0.731697	 3.519349	-1.378229	 35.397820	-2.634230	-4.327400	 0.267796	 1.330623	 0.527331	-8.457667	-0.055595	 89.782090	 78.203870	-180.000000	-34.324470	 45.069740	 31.849530	 12.701370	-5.506690	 102.247200	-14.068320	 51.827610	 34.523820	 5.716295	 19.173350	-3.684826	 5.027458	 0.246833	-9.377971	-2.350882	 35.473990	 5.254307
-0.756985	-0.090351	 1.278271	 179.216900	 7.038327	-1.566459	 25.806550	-19.436800	-177.653200	-7.711128	-30.546490	-4.692690	-17.968580	 81.339040	 10.922880	-2.385833	 28.452760	 0.000004	-2.811104	-18.009790	-173.363100	 3.183371	-29.506500	 1.677937	 8.201597	 79.034760	-3.235605	 2.384659	 28.388700	-0.000001	-23.885340	 23.797540	-0.195444	-15.035950	-23.299200	-20.136590	 8.262234	 19.232300	 10.090680	-91.776090	 78.527400	 179.999900	 35.539640	 64.369780	-45.385850	-20.727930	 3.889419	-58.486710	-10.018110	-9.700438	-3.406666	-4.130354	 21.526190	 0.991307	-5.167926	 0.731697	 3.519349	-1.378229	 35.397820	-2.634230	-4.494319	 0.450814	 2.303827	 0.619135	-10.687530	-0.183953	 89.782140	 78.203850	 180.000000	-28.109170	 42.983540	 34.863500	 11.516280	-5.130054	 91.135360	-18.719280	 48.319290	 42.293610	 5.716295	 19.173350	-3.684826	 5.027458	 0.246833	-9.377971	-2.350882	 35.473990	 5.254307
